<mxfile host="app.diagrams.net" modified="2020-11-09T08:09:14.996Z" agent="5.0 (Windows NT 10.0; Win64; x64) AppleWebKit/537.36 (KHTML, like Gecko) Chrome/86.0.4240.183 Safari/537.36" etag="RknQHry7fZPWwv-47zbM" version="13.9.2" type="github">
  <diagram id="jg67DgitrG8ISkYtE0h2" name="Page-1">
    <mxGraphModel dx="898" dy="511" grid="1" gridSize="10" guides="1" tooltips="1" connect="1" arrows="1" fold="1" page="1" pageScale="1" pageWidth="827" pageHeight="1169" math="0" shadow="0">
      <root>
        <mxCell id="0" />
        <mxCell id="1" parent="0" />
        <mxCell id="6uoA5gbnH5kzVsQCbRJ5-1" value="" style="shape=folder;fontStyle=1;spacingTop=10;tabWidth=40;tabHeight=14;tabPosition=left;html=1;" parent="1" vertex="1">
          <mxGeometry x="25" y="20" width="360" height="430" as="geometry" />
        </mxCell>
        <mxCell id="6uoA5gbnH5kzVsQCbRJ5-3" value="" style="shape=folder;fontStyle=1;spacingTop=10;tabWidth=40;tabHeight=14;tabPosition=left;html=1;" parent="1" vertex="1">
          <mxGeometry x="430" y="50" width="270" height="140" as="geometry" />
        </mxCell>
        <mxCell id="6uoA5gbnH5kzVsQCbRJ5-4" value="Поликлиника" style="text;html=1;resizable=0;autosize=1;align=center;verticalAlign=middle;points=[];fillColor=none;strokeColor=none;rounded=0;" parent="1" vertex="1">
          <mxGeometry x="140" y="60" width="90" height="20" as="geometry" />
        </mxCell>
        <mxCell id="6uoA5gbnH5kzVsQCbRJ5-5" value="Пациент" style="text;html=1;resizable=0;autosize=1;align=center;verticalAlign=middle;points=[];fillColor=none;strokeColor=none;rounded=0;" parent="1" vertex="1">
          <mxGeometry x="530" y="70" width="60" height="20" as="geometry" />
        </mxCell>
        <mxCell id="6uoA5gbnH5kzVsQCbRJ5-6" value="Пациент" style="html=1;" parent="1" vertex="1">
          <mxGeometry x="510" y="120" width="110" height="50" as="geometry" />
        </mxCell>
        <mxCell id="6uoA5gbnH5kzVsQCbRJ5-7" value="Поликлиника" style="html=1;" parent="1" vertex="1">
          <mxGeometry x="40" y="95" width="110" height="50" as="geometry" />
        </mxCell>
        <mxCell id="6uoA5gbnH5kzVsQCbRJ5-8" value="" style="shape=folder;fontStyle=1;spacingTop=10;tabWidth=40;tabHeight=14;tabPosition=left;html=1;" parent="1" vertex="1">
          <mxGeometry x="440" y="250" width="310" height="190" as="geometry" />
        </mxCell>
        <mxCell id="6uoA5gbnH5kzVsQCbRJ5-9" value="Система" style="text;html=1;resizable=0;autosize=1;align=center;verticalAlign=middle;points=[];fillColor=none;strokeColor=none;rounded=0;" parent="1" vertex="1">
          <mxGeometry x="530" y="270" width="60" height="20" as="geometry" />
        </mxCell>
        <mxCell id="6uoA5gbnH5kzVsQCbRJ5-10" value="Система" style="html=1;" parent="1" vertex="1">
          <mxGeometry x="470" y="300" width="110" height="50" as="geometry" />
        </mxCell>
        <mxCell id="6uoA5gbnH5kzVsQCbRJ5-11" value="" style="shape=folder;fontStyle=1;spacingTop=10;tabWidth=40;tabHeight=14;tabPosition=left;html=1;" parent="1" vertex="1">
          <mxGeometry x="620" y="320" width="120" height="100" as="geometry" />
        </mxCell>
        <mxCell id="6uoA5gbnH5kzVsQCbRJ5-12" value="База данных" style="text;html=1;resizable=0;autosize=1;align=center;verticalAlign=middle;points=[];fillColor=none;strokeColor=none;rounded=0;" parent="1" vertex="1">
          <mxGeometry x="635" y="340" width="90" height="20" as="geometry" />
        </mxCell>
        <mxCell id="6uoA5gbnH5kzVsQCbRJ5-13" value="База данных" style="html=1;" parent="1" vertex="1">
          <mxGeometry x="640" y="370" width="85" height="40" as="geometry" />
        </mxCell>
        <mxCell id="6uoA5gbnH5kzVsQCbRJ5-14" value="" style="shape=folder;fontStyle=1;spacingTop=10;tabWidth=40;tabHeight=14;tabPosition=left;html=1;" parent="1" vertex="1">
          <mxGeometry x="40" y="180" width="130" height="110" as="geometry" />
        </mxCell>
        <mxCell id="6uoA5gbnH5kzVsQCbRJ5-15" value="Врач" style="text;html=1;resizable=0;autosize=1;align=center;verticalAlign=middle;points=[];fillColor=none;strokeColor=none;rounded=0;" parent="1" vertex="1">
          <mxGeometry x="75" y="200" width="40" height="20" as="geometry" />
        </mxCell>
        <mxCell id="6uoA5gbnH5kzVsQCbRJ5-16" value="Врач" style="html=1;" parent="1" vertex="1">
          <mxGeometry x="50" y="230" width="110" height="50" as="geometry" />
        </mxCell>
        <mxCell id="6uoA5gbnH5kzVsQCbRJ5-18" value="" style="shape=folder;fontStyle=1;spacingTop=10;tabWidth=40;tabHeight=14;tabPosition=left;html=1;" parent="1" vertex="1">
          <mxGeometry x="210" y="180" width="130" height="110" as="geometry" />
        </mxCell>
        <mxCell id="6uoA5gbnH5kzVsQCbRJ5-19" value="Прием" style="text;html=1;resizable=0;autosize=1;align=center;verticalAlign=middle;points=[];fillColor=none;strokeColor=none;rounded=0;" parent="1" vertex="1">
          <mxGeometry x="250" y="200" width="50" height="20" as="geometry" />
        </mxCell>
        <mxCell id="6uoA5gbnH5kzVsQCbRJ5-20" value="Прием" style="html=1;" parent="1" vertex="1">
          <mxGeometry x="220" y="230" width="110" height="50" as="geometry" />
        </mxCell>
        <mxCell id="6uoA5gbnH5kzVsQCbRJ5-21" value="" style="shape=folder;fontStyle=1;spacingTop=10;tabWidth=40;tabHeight=14;tabPosition=left;html=1;" parent="1" vertex="1">
          <mxGeometry x="40" y="330" width="130" height="110" as="geometry" />
        </mxCell>
        <mxCell id="6uoA5gbnH5kzVsQCbRJ5-22" value="Лечение" style="text;html=1;resizable=0;autosize=1;align=center;verticalAlign=middle;points=[];fillColor=none;strokeColor=none;rounded=0;" parent="1" vertex="1">
          <mxGeometry x="75" y="350" width="60" height="20" as="geometry" />
        </mxCell>
        <mxCell id="6uoA5gbnH5kzVsQCbRJ5-23" value="Лечение" style="html=1;" parent="1" vertex="1">
          <mxGeometry x="50" y="380" width="110" height="50" as="geometry" />
        </mxCell>
      </root>
    </mxGraphModel>
  </diagram>
</mxfile>
